<svg width="187" height="124" version="1.1" xmlns="http://www.w3.org/2000/svg" desc="Created with imagetracer.js version 1.2.6" ><path fill="rgb(0,0,0)" stroke="rgb(0,0,0)" stroke-width="1" opacity="0" d="M 0 0 L 187 0 L 187 124 L 0 124 L 0 0 Z M 61 5 L 55 8 L 51 13 L 52 16 L 52 17 L 50 13 L 41 9 L 38 11 Q 37 18 41 21 Q 42 25 49 24 L 50 26 L 49 29 L 50 31 Q 49 33 52 32 L 53 30 L 52 26 L 53 21 Q 54 18 58 19 L 63 12 L 63 7 L 61 5 Z M 110 5 Q 107 11 110 13 L 107 18 L 118 38 L 126 37 L 126 17 L 124 14 L 125 6 L 117 6 L 116 5 L 114 6 L 110 5 Z M 135 5 L 133 6 L 127 14 Q 127 20 130 23 L 137 26 L 143 25 L 148 19 L 147 10 Q 144 4 135 5 Z M 87 10 L 83 12 L 76 20 L 63 42 L 61 48 L 67 51 L 83 23 L 91 17 L 95 18 L 100 25 L 112 46 L 109 47 L 107 50 L 120 55 L 123 55 Q 125 51 124 42 Q 126 40 124 39 L 119 41 L 104 17 L 96 10 L 87 10 Z M 39 24 L 33 33 L 34 37 L 39 40 L 43 39 L 45 36 Q 46 29 42 27 L 39 24 Z M 62 24 L 58 29 Q 58 33 61 33 Q 65 34 66 31 L 65 27 L 62 24 Z M 136 29 L 133 33 Q 128 32 127 35 Q 126 39 129 40 L 129 51 L 130 52 L 129 54 L 131 60 L 133 61 L 146 61 L 148 59 L 148 45 L 149 42 L 148 40 L 151 36 Q 150 32 144 33 L 142 29 L 140 30 L 138 29 L 136 29 Z M 92 30 Q 80 37 77 53 L 78 59 L 82 65 L 89 69 L 90 70 L 86 61 L 87 57 L 90 67 L 95 65 Q 100 62 102 56 L 101 45 L 95 37 L 94 32 L 92 30 Z M 51 34 L 46 41 Q 45 48 50 50 Q 56 51 57 47 Q 58 40 55 38 L 51 34 Z M 39 41 L 32 52 L 33 58 L 38 61 L 43 60 L 46 56 L 46 51 L 41 43 L 39 41 Z M 59 54 L 48 59 L 46 62 L 50 65 L 36 88 Q 35 96 38 101 L 47 107 L 85 107 L 85 107 L 85 100 L 82 99 L 48 99 L 45 98 L 43 94 L 43 91 L 46 85 L 55 70 Q 57 66 59 70 L 62 69 L 61 67 L 61 56 L 59 54 Z M 127 58 L 122 60 L 122 64 L 138 90 L 137 97 Q 136 100 131 99 L 129 99 L 107 99 L 106 100 L 104 100 L 104 94 L 102 94 L 92 101 L 90 104 L 103 113 Q 105 112 104 107 L 135 107 L 139 105 Q 144 101 146 94 L 145 87 L 130 61 L 127 58 Z M 101 63 L 92 69 Q 105 68 113 73 L 115 76 Q 107 69 93 70 L 94 81 L 97 87 L 107 92 L 119 92 L 120 91 L 125 92 Q 127 97 129 94 Q 129 78 121 70 L 112 63 L 101 63 Z M 72 64 L 68 66 Q 60 72 57 82 L 54 84 L 52 87 Q 57 92 67 94 Q 77 96 83 92 Q 90 88 92 79 L 92 72 L 90 71 L 88 76 Q 83 82 76 85 L 74 85 L 80 82 L 89 72 Q 84 64 72 64 Z M 36 65 L 33 68 Q 34 74 38 78 L 44 68 L 44 65 L 36 65 Z M 144 65 L 140 71 L 141 75 L 146 76 Q 149 75 148 69 L 144 65 Z M 49 92 L 47 95 L 49 96 Q 55 94 57 97 Q 59 98 58 95 L 54 92 L 49 92 Z " /><path fill="rgb(0,0,0)" stroke="rgb(0,0,0)" stroke-width="1" opacity="0" d="M 142.5 11 L 143 13.5 L 137.5 19 L 135.5 19 L 133 15.5 L 135.5 17 Q 139.5 17.5 140 14.5 L 142.5 11 Z " /><path fill="rgb(0,0,0)" stroke="rgb(0,0,0)" stroke-width="1" opacity="0" d="M 136.5 32 L 141 32.5 L 136.5 33 L 136.5 32 Z " /><path fill="rgb(0,0,0)" stroke="rgb(0,0,0)" stroke-width="1" opacity="0" d="M 85.5 49 L 86 54.5 L 85 54.5 L 85.5 49 Z " /><path fill="rgb(140,142,44)" stroke="rgb(140,142,44)" stroke-width="1" opacity="0.3058823529411765" d="M 54.5 8 L 52.5 11 L 54.5 8 Z " /><path fill="rgb(140,142,44)" stroke="rgb(140,142,44)" stroke-width="1" opacity="0.3058823529411765" d="M 82.5 12 L 81.5 14 L 82.5 12 Z " /><path fill="rgb(140,142,44)" stroke="rgb(140,142,44)" stroke-width="1" opacity="0.3058823529411765" d="M 51.5 13 L 52 14.5 L 50 15.5 L 51.5 13 Z " /><path fill="rgb(140,142,44)" stroke="rgb(140,142,44)" stroke-width="1" opacity="0.3058823529411765" d="M 60.5 15 L 59.5 17 L 60.5 15 Z " /><path fill="rgb(140,142,44)" stroke="rgb(140,142,44)" stroke-width="1" opacity="0.3058823529411765" d="M 96.5 19 L 97.5 21 L 96.5 19 Z " /><path fill="rgb(140,142,44)" stroke="rgb(140,142,44)" stroke-width="1" opacity="0.3058823529411765" d="M 47.5 23 L 50 24.5 L 48.5 24 L 47.5 23 Z " /><path fill="rgb(140,142,44)" stroke="rgb(140,142,44)" stroke-width="1" opacity="0.3058823529411765" d="M 38.5 24 L 37.5 26 L 38.5 24 Z " /><path fill="rgb(140,142,44)" stroke="rgb(140,142,44)" stroke-width="1" opacity="0.3058823529411765" d="M 111.5 25 L 112.5 27 L 111.5 25 Z " /><path fill="rgb(140,142,44)" stroke="rgb(140,142,44)" stroke-width="1" opacity="0.3058823529411765" d="M 59.5 31 L 60.5 33 L 59.5 31 Z " /><path fill="rgb(140,142,44)" stroke="rgb(140,142,44)" stroke-width="1" opacity="0.3058823529411765" d="M 112.5 32 L 113.5 34 L 112.5 32 Z " /><path fill="rgb(140,142,44)" stroke="rgb(140,142,44)" stroke-width="1" opacity="0.3058823529411765" d="M 53.5 36 L 54.5 38 L 53.5 36 Z " /><path fill="rgb(140,142,44)" stroke="rgb(140,142,44)" stroke-width="1" opacity="0.3058823529411765" d="M 117.5 40 L 120 41.5 L 118.5 42 L 117.5 40 Z " /><path fill="rgb(140,142,44)" stroke="rgb(140,142,44)" stroke-width="1" opacity="0.3058823529411765" d="M 85.5 45 L 87 47.5 L 85 48 L 85.5 45 Z " /><path fill="rgb(140,142,44)" stroke="rgb(140,142,44)" stroke-width="1" opacity="0.3058823529411765" d="M 33.5 57 L 34.5 59 L 33.5 57 Z " /><path fill="rgb(140,142,44)" stroke="rgb(140,142,44)" stroke-width="1" opacity="0.3058823529411765" d="M 126.5 58 L 129 59.5 L 127.5 59 L 126.5 58 Z " /><path fill="rgb(140,142,44)" stroke="rgb(140,142,44)" stroke-width="1" opacity="0.3058823529411765" d="M 125.5 68 L 126.5 70 L 125.5 68 Z " /><path fill="rgb(140,142,44)" stroke="rgb(140,142,44)" stroke-width="1" opacity="0.3058823529411765" d="M 94.5 70 L 100 70.5 L 94.5 71 L 94.5 70 Z " /><path fill="rgb(140,142,44)" stroke="rgb(140,142,44)" stroke-width="1" opacity="0.3058823529411765" d="M 111.5 72 L 110.5 74 L 111.5 72 Z " /><path fill="rgb(140,142,44)" stroke="rgb(140,142,44)" stroke-width="1" opacity="0.3058823529411765" d="M 114.5 74 L 115.5 76 L 113 75.5 L 114.5 74 Z " /><path fill="rgb(140,142,44)" stroke="rgb(140,142,44)" stroke-width="1" opacity="0.3058823529411765" d="M 116.5 77 L 119 78 L 121 81.5 L 116.5 77 Z " /><path fill="rgb(140,142,44)" stroke="rgb(140,142,44)" stroke-width="1" opacity="0.3058823529411765" d="M 80.5 80 L 81.5 82 L 79 81.5 L 80.5 80 Z " /><path fill="rgb(140,142,44)" stroke="rgb(140,142,44)" stroke-width="1" opacity="0.3058823529411765" d="M 39.5 82 L 38.5 84 L 39.5 82 Z " /><path fill="rgb(140,142,44)" stroke="rgb(140,142,44)" stroke-width="1" opacity="0.3058823529411765" d="M 75.5 83 L 76.5 85 L 75.5 83 Z " /><path fill="rgb(140,142,44)" stroke="rgb(140,142,44)" stroke-width="1" opacity="0.3058823529411765" d="M 121.5 83 L 122.5 85 L 121.5 83 Z " /><path fill="rgb(140,142,44)" stroke="rgb(140,142,44)" stroke-width="1" opacity="0.3058823529411765" d="M 64.5 86 L 67 86.5 L 64.5 87 L 64.5 86 Z " /><path fill="rgb(140,142,44)" stroke="rgb(140,142,44)" stroke-width="1" opacity="0.3058823529411765" d="M 68.5 86 L 71 86.5 L 68.5 87 L 68.5 86 Z " /><path fill="rgb(140,142,44)" stroke="rgb(140,142,44)" stroke-width="1" opacity="0.3058823529411765" d="M 36.5 87 L 37 89.5 L 36 89.5 L 36.5 87 Z " /><path fill="rgb(140,142,44)" stroke="rgb(140,142,44)" stroke-width="1" opacity="0.3058823529411765" d="M 56.5 89 L 57.5 91 L 56.5 89 Z " /><path fill="rgb(140,142,44)" stroke="rgb(140,142,44)" stroke-width="1" opacity="0.3058823529411765" d="M 138.5 90 L 139 92.5 L 138 92.5 L 138.5 90 Z " /><path fill="rgb(140,142,44)" stroke="rgb(140,142,44)" stroke-width="1" opacity="0.3058823529411765" d="M 121.5 91 L 124 91.5 L 121.5 92 L 121.5 91 Z " /><path fill="rgb(140,142,44)" stroke="rgb(140,142,44)" stroke-width="1" opacity="0.3058823529411765" d="M 103.5 95 L 104 99.5 L 103 99.5 L 103.5 95 Z " /><path fill="rgb(140,142,44)" stroke="rgb(140,142,44)" stroke-width="1" opacity="0.3058823529411765" d="M 98.5 96 L 97.5 98 L 98.5 96 Z " /><path fill="rgb(140,142,44)" stroke="rgb(140,142,44)" stroke-width="1" opacity="0.3058823529411765" d="M 94.5 99 L 93.5 101 L 94.5 99 Z " /><path fill="rgb(140,142,44)" stroke="rgb(140,142,44)" stroke-width="1" opacity="0.3058823529411765" d="M 142.5 100 L 141.5 102 L 142.5 100 Z " /><path fill="rgb(140,142,44)" stroke="rgb(140,142,44)" stroke-width="1" opacity="0.3058823529411765" d="M 40.5 102 L 41.5 104 L 40.5 102 Z " /><path fill="rgb(140,142,44)" stroke="rgb(140,142,44)" stroke-width="1" opacity="0.3058823529411765" d="M 103.5 107 L 104 110.5 L 103 110.5 L 103.5 107 Z " /><path fill="rgb(172,137,83)" stroke="rgb(172,137,83)" stroke-width="1" opacity="0.9764705882352941" d="M 90.5 10 Q 99.7 10.3 103 16.5 L 118.5 42 L 124 40 L 123 53.5 L 121.5 55 L 108 50 L 109.5 47 L 113 45.5 L 104 31.5 L 104.5 30 Q 102.3 30.8 103 28.5 L 95.5 18 L 87.5 17 L 83 21.5 L 67 50 L 61 48 L 80 14 L 90.5 10 Z " /><path fill="rgb(172,137,83)" stroke="rgb(172,137,83)" stroke-width="1" opacity="0.9764705882352941" d="M 108.5 17 L 125 17.5 L 108.5 18 L 108.5 17 Z " /><path fill="rgb(172,137,83)" stroke="rgb(172,137,83)" stroke-width="1" opacity="0.9764705882352941" d="M 57.5 55 L 60 55.5 L 60 63.5 L 61 69 L 55 68 L 43 89.5 L 43 95.5 L 47.5 100 L 84 100 L 85 102.5 L 84 105.5 L 83.5 107 L 49.5 107 Q 41.4 105.6 38 99.5 L 36 90.5 L 50 64.5 L 47 60.5 L 57.5 55 Z " /><path fill="rgb(172,137,83)" stroke="rgb(172,137,83)" stroke-width="1" opacity="0.9764705882352941" d="M 125.5 59 L 129 60.5 L 145 88.5 L 145 94.5 L 141 103 L 132.5 107 L 103 107 L 103 112 L 101.5 112 L 91 103.5 L 92.5 101 L 102.5 94 L 103 100 L 133.5 100 L 137 98 L 139 90.5 L 122 61.5 L 125.5 59 Z " /><path fill="rgb(165,200,61)" stroke="rgb(165,200,61)" stroke-width="1" opacity="0.7215686274509804" d="M 136.5 5 L 139 5.5 L 136.5 6 L 136.5 5 Z " /><path fill="rgb(165,200,61)" stroke="rgb(165,200,61)" stroke-width="1" opacity="0.7215686274509804" d="M 62.5 6 L 63 9.5 L 62 9.5 L 62.5 6 Z " /><path fill="rgb(165,200,61)" stroke="rgb(165,200,61)" stroke-width="1" opacity="0.7215686274509804" d="M 143.5 13 L 139.5 18 L 143.5 13 Z " /><path fill="rgb(165,200,61)" stroke="rgb(165,200,61)" stroke-width="1" opacity="0.7215686274509804" d="M 125.5 17 L 126 33.5 L 125 33.5 L 125.5 17 Z " /><path fill="rgb(165,200,61)" stroke="rgb(165,200,61)" stroke-width="1" opacity="0.7215686274509804" d="M 145.5 21 L 144.5 23 L 145.5 21 Z " /><path fill="rgb(165,200,61)" stroke="rgb(165,200,61)" stroke-width="1" opacity="0.7215686274509804" d="M 51.5 34 L 52.5 36 L 51.5 34 Z " /><path fill="rgb(165,200,61)" stroke="rgb(165,200,61)" stroke-width="1" opacity="0.7215686274509804" d="M 87.5 34 L 86.5 36 L 87.5 34 Z " /><path fill="rgb(165,200,61)" stroke="rgb(165,200,61)" stroke-width="1" opacity="0.7215686274509804" d="M 34.5 36 L 35.5 38 L 34.5 36 Z " /><path fill="rgb(165,200,61)" stroke="rgb(165,200,61)" stroke-width="1" opacity="0.7215686274509804" d="M 37.5 43 L 36.5 45 L 37.5 43 Z " /><path fill="rgb(165,200,61)" stroke="rgb(165,200,61)" stroke-width="1" opacity="0.7215686274509804" d="M 47.5 47 L 48.5 49 L 47.5 47 Z " /><path fill="rgb(165,200,61)" stroke="rgb(165,200,61)" stroke-width="1" opacity="0.7215686274509804" d="M 55.5 47 L 54.5 49 L 55.5 47 Z " /><path fill="rgb(165,200,61)" stroke="rgb(165,200,61)" stroke-width="1" opacity="0.7215686274509804" d="M 66.5 67 L 64.5 70 L 66.5 67 Z " /><path fill="rgb(165,200,61)" stroke="rgb(165,200,61)" stroke-width="1" opacity="0.7215686274509804" d="M 84.5 68 L 85.5 70 L 84.5 68 Z " /><path fill="rgb(165,200,61)" stroke="rgb(165,200,61)" stroke-width="1" opacity="0.7215686274509804" d="M 120.5 70 L 121.5 72 L 120.5 70 Z " /><path fill="rgb(165,200,61)" stroke="rgb(165,200,61)" stroke-width="1" opacity="0.7215686274509804" d="M 85.5 75 L 81.5 80 L 85.5 75 Z " /><path fill="rgb(165,200,61)" stroke="rgb(165,200,61)" stroke-width="1" opacity="0.7215686274509804" d="M 88.5 75 L 83.5 81 L 88.5 75 Z " /><path fill="rgb(165,200,61)" stroke="rgb(165,200,61)" stroke-width="1" opacity="0.7215686274509804" d="M 78.5 81 L 77.5 83 L 78.5 81 Z " /><path fill="rgb(165,200,61)" stroke="rgb(165,200,61)" stroke-width="1" opacity="0.7215686274509804" d="M 56.5 82 L 54.5 85 L 56.5 82 Z " /><path fill="rgb(165,200,61)" stroke="rgb(165,200,61)" stroke-width="1" opacity="0.7215686274509804" d="M 52.5 86 L 53.5 88 L 52.5 86 Z " /><path fill="rgb(165,200,61)" stroke="rgb(165,200,61)" stroke-width="1" opacity="0.7215686274509804" d="M 61.5 86 L 67 87.5 L 62.5 88 L 61.5 86 Z " /><path fill="rgb(165,200,61)" stroke="rgb(165,200,61)" stroke-width="1" opacity="0.7215686274509804" d="M 87.5 86 L 84.5 90 L 87.5 86 Z " /><path fill="rgb(165,200,61)" stroke="rgb(165,200,61)" stroke-width="1" opacity="0.7215686274509804" d="M 108.5 91 L 112 91.5 L 108.5 92 L 108.5 91 Z " /><path fill="rgb(165,200,61)" stroke="rgb(165,200,61)" stroke-width="1" opacity="0.7215686274509804" d="M 70.5 93 L 75 93.5 L 70.5 94 L 70.5 93 Z " /><path fill="rgb(149,195,51)" stroke="rgb(149,195,51)" stroke-width="1" opacity="0.9921568627450981" d="M 59.5 6 L 62 6 L 62 12.5 L 57.5 18 L 53 19 Q 50.8 22.7 52 31 Q 48.5 32.1 50 24.5 L 51 21.5 L 46.5 16 L 43.5 15 L 49.5 23 Q 42.6 23.9 41 19.5 L 38 11.5 L 41.5 10 L 45.5 11 L 50 14.5 L 51.5 21 L 53 18.5 Q 50.5 17 52 11.5 L 59.5 6 Z M 59 10 L 53 16 L 54 18 L 59 12 L 59 10 Z " /><path fill="rgb(149,195,51)" stroke="rgb(149,195,51)" stroke-width="1" opacity="0.9921568627450981" d="M 134.5 6 Q 143.5 4.5 146 9.5 L 148 16.5 L 142.5 24 L 135.5 25 L 130 21.5 Q 127.2 18.8 128 12.5 L 132.5 7 L 134.5 6 Z M 141 11 L 141 13 L 137 17 L 134 14 Q 131 13 132 17 L 137 20 L 144 14 Q 145 9 141 11 Z " /><path fill="rgb(149,195,51)" stroke="rgb(149,195,51)" stroke-width="1" opacity="0.9921568627450981" d="M 108.5 18 L 125 18 L 125 34 L 117.5 34 L 116 32.5 Q 113.2 30.5 114 26 Q 111.3 27.1 112 24.5 L 108.5 18 Z " /><path fill="rgb(149,195,51)" stroke="rgb(149,195,51)" stroke-width="1" opacity="0.9921568627450981" d="M 38.5 25 L 42 27.5 Q 44.8 30.2 44 36.5 Q 42.6 39.6 37.5 39 Q 33 38 34 31.5 L 38.5 25 Z " /><path fill="rgb(149,195,51)" stroke="rgb(149,195,51)" stroke-width="1" opacity="0.9921568627450981" d="M 61.5 25 L 64 26.5 L 65 30.5 L 61.5 33 Q 58.5 32.5 59 28.5 L 61.5 25 Z " /><path fill="rgb(149,195,51)" stroke="rgb(149,195,51)" stroke-width="1" opacity="0.9921568627450981" d="M 50 35 L 55 38.5 L 57 44.5 L 53.5 49 Q 47 50 46 45.5 L 46 42.5 L 50 35 Z " /><path fill="rgb(149,195,51)" stroke="rgb(149,195,51)" stroke-width="1" opacity="0.9921568627450981" d="M 84.5 38 L 83.5 40 L 84.5 38 Z " /><path fill="rgb(149,195,51)" stroke="rgb(149,195,51)" stroke-width="1" opacity="0.9921568627450981" d="M 38 42 L 41 43.5 L 45 50.5 L 45 55.5 L 42.5 59 L 37.5 60 L 34 57.5 L 33 50.5 L 38 42 Z " /><path fill="rgb(149,195,51)" stroke="rgb(149,195,51)" stroke-width="1" opacity="0.9921568627450981" d="M 104.5 63 L 112.5 64 L 120 69.5 Q 128 77.5 128 93.5 L 125.5 92 L 123.5 91 L 105.5 91 L 98 86.5 Q 93.1 81.3 94 71 L 102.5 71 L 109.5 73 L 120.5 82 L 121 80.5 Q 115.5 72.5 105.5 69 L 94 67.5 L 104.5 63 Z M 122 82 L 121 84 L 123 85 L 122 82 Z " /><path fill="rgb(149,195,51)" stroke="rgb(149,195,51)" stroke-width="1" opacity="0.9921568627450981" d="M 90.5 64 L 91.5 66 L 90.5 64 Z " /><path fill="rgb(149,195,51)" stroke="rgb(149,195,51)" stroke-width="1" opacity="0.9921568627450981" d="M 71.5 65 Q 83 65 88 71.5 L 79.5 81 L 68.5 86 L 61 86.5 Q 62 89 66.5 88 L 77.5 85 L 89 75.5 L 90.5 72 L 91 78.5 Q 88.8 86.8 82.5 91 Q 77.1 94.6 66.5 93 Q 57.9 91.6 53 86.5 Q 52.3 84.3 54.5 85 L 63 71.5 L 68.5 66 L 71.5 65 Z " /><path fill="rgb(149,195,51)" stroke="rgb(149,195,51)" stroke-width="1" opacity="0.9921568627450981" d="M 34.5 66 L 35 68.5 L 34 68.5 L 34.5 66 Z " /><path fill="rgb(149,195,51)" stroke="rgb(149,195,51)" stroke-width="1" opacity="0.9921568627450981" d="M 43.5 66 L 42.5 68 L 43.5 66 Z " /><path fill="rgb(149,195,51)" stroke="rgb(149,195,51)" stroke-width="1" opacity="0.9921568627450981" d="M 143.5 66 L 147 68.5 L 144.5 67 L 143.5 66 Z " /><path fill="rgb(149,195,51)" stroke="rgb(149,195,51)" stroke-width="1" opacity="0.9921568627450981" d="M 87.5 67 L 90 68.5 L 88.5 68 L 87.5 67 Z " /><path fill="rgb(149,195,51)" stroke="rgb(149,195,51)" stroke-width="1" opacity="0.9921568627450981" d="M 36.5 68 L 41 71.5 Q 39 75 37 70.5 L 36.5 68 Z " /><path fill="rgb(149,195,51)" stroke="rgb(149,195,51)" stroke-width="1" opacity="0.9921568627450981" d="M 142.5 68 L 142 69.5 L 141.5 73 L 141 69.5 L 142.5 68 Z " /><path fill="rgb(149,195,51)" stroke="rgb(149,195,51)" stroke-width="1" opacity="0.9921568627450981" d="M 48 93 Q 51 92 50 95 Q 47 96 48 93 Z " /><path fill="rgb(149,195,51)" stroke="rgb(149,195,51)" stroke-width="1" opacity="0.9921568627450981" d="M 52.5 93 L 57 95.5 L 55.5 95 L 51 94.5 L 52.5 93 Z " /><path fill="rgb(75,83,31)" stroke="rgb(75,83,31)" stroke-width="1" opacity="0.21568627450980393" d="M 124.5 6 L 125 10.5 L 123 11.5 L 124.5 6 Z " /><path fill="rgb(75,83,31)" stroke="rgb(75,83,31)" stroke-width="1" opacity="0.21568627450980393" d="M 132.5 6 L 131.5 8 L 132.5 6 Z " /><path fill="rgb(75,83,31)" stroke="rgb(75,83,31)" stroke-width="1" opacity="0.21568627450980393" d="M 39.5 24 L 40.5 26 L 39.5 24 Z " /><path fill="rgb(75,83,31)" stroke="rgb(75,83,31)" stroke-width="1" opacity="0.21568627450980393" d="M 60.5 25 L 59.5 27 L 60.5 25 Z " /><path fill="rgb(75,83,31)" stroke="rgb(75,83,31)" stroke-width="1" opacity="0.21568627450980393" d="M 134.5 30 L 134 31.5 L 133.5 33 L 133 31.5 L 134.5 30 Z " /><path fill="rgb(75,83,31)" stroke="rgb(75,83,31)" stroke-width="1" opacity="0.21568627450980393" d="M 33.5 32 L 34 34.5 L 33 34.5 L 33.5 32 Z " /><path fill="rgb(75,83,31)" stroke="rgb(75,83,31)" stroke-width="1" opacity="0.21568627450980393" d="M 44.5 32 L 45 35.5 L 44 35.5 L 44.5 32 Z " /><path fill="rgb(75,83,31)" stroke="rgb(75,83,31)" stroke-width="1" opacity="0.21568627450980393" d="M 128.5 33 L 127.5 35 L 128.5 33 Z " /><path fill="rgb(75,83,31)" stroke="rgb(75,83,31)" stroke-width="1" opacity="0.21568627450980393" d="M 84.5 37 L 83.5 39 L 84.5 37 Z " /><path fill="rgb(75,83,31)" stroke="rgb(75,83,31)" stroke-width="1" opacity="0.21568627450980393" d="M 38.5 39 L 41 39.5 L 38.5 40 L 38.5 39 Z " /><path fill="rgb(75,83,31)" stroke="rgb(75,83,31)" stroke-width="1" opacity="0.21568627450980393" d="M 129.5 46 L 130 48.5 L 129 48.5 L 129.5 46 Z " /><path fill="rgb(75,83,31)" stroke="rgb(75,83,31)" stroke-width="1" opacity="0.21568627450980393" d="M 108.5 47 L 107.5 49 L 108.5 47 Z " /><path fill="rgb(75,83,31)" stroke="rgb(75,83,31)" stroke-width="1" opacity="0.21568627450980393" d="M 123.5 47 L 124 49.5 L 123 49.5 L 123.5 47 Z " /><path fill="rgb(75,83,31)" stroke="rgb(75,83,31)" stroke-width="1" opacity="0.21568627450980393" d="M 147.5 52 L 148 55.5 L 147 55.5 L 147.5 52 Z " /><path fill="rgb(75,83,31)" stroke="rgb(75,83,31)" stroke-width="1" opacity="0.21568627450980393" d="M 60.5 58 L 61 60.5 L 60 60.5 L 60.5 58 Z " /><path fill="rgb(75,83,31)" stroke="rgb(75,83,31)" stroke-width="1" opacity="0.21568627450980393" d="M 96.5 62 L 94.5 65 L 96.5 62 Z " /><path fill="rgb(75,83,31)" stroke="rgb(75,83,31)" stroke-width="1" opacity="0.21568627450980393" d="M 72.5 64 L 77 64.5 L 72.5 65 L 72.5 64 Z " /><path fill="rgb(75,83,31)" stroke="rgb(75,83,31)" stroke-width="1" opacity="0.21568627450980393" d="M 49.5 65 L 48.5 67 L 49.5 65 Z " /><path fill="rgb(75,83,31)" stroke="rgb(75,83,31)" stroke-width="1" opacity="0.21568627450980393" d="M 94.5 66 L 94.5 68 L 99 68.5 L 94.5 69 Q 91.5 67.5 94.5 66 Z " /><path fill="rgb(75,83,31)" stroke="rgb(75,83,31)" stroke-width="1" opacity="0.21568627450980393" d="M 140.5 70 L 141 72.5 L 140 72.5 L 140.5 70 Z " /><path fill="rgb(75,83,31)" stroke="rgb(75,83,31)" stroke-width="1" opacity="0.21568627450980393" d="M 109.5 71 L 108.5 73 L 109.5 71 Z " /><path fill="rgb(75,83,31)" stroke="rgb(75,83,31)" stroke-width="1" opacity="0.21568627450980393" d="M 93.5 73 L 94 75.5 L 93 75.5 L 93.5 73 Z " /><path fill="rgb(75,83,31)" stroke="rgb(75,83,31)" stroke-width="1" opacity="0.21568627450980393" d="M 91.5 76 L 92 78.5 L 91 78.5 L 91.5 76 Z " /><path fill="rgb(75,83,31)" stroke="rgb(75,83,31)" stroke-width="1" opacity="0.21568627450980393" d="M 128.5 88 L 129 93.5 L 128 93.5 L 128.5 88 Z " /><path fill="rgb(75,83,31)" stroke="rgb(75,83,31)" stroke-width="1" opacity="0.21568627450980393" d="M 49.5 95 L 53 95.5 L 49.5 96 L 49.5 95 Z " /><path fill="rgb(75,83,31)" stroke="rgb(75,83,31)" stroke-width="1" opacity="0.21568627450980393" d="M 91.5 101 L 90.5 103 L 91.5 101 Z " /><path fill="rgb(86,113,59)" stroke="rgb(86,113,59)" stroke-width="1" opacity="0.9764705882352941" d="M 109 6 L 123.5 6 Q 124.5 6 124 10.5 L 123 12.5 L 125 17 L 108 16.5 L 110 11.5 L 109 6 Z " /><path fill="rgb(86,113,59)" stroke="rgb(86,113,59)" stroke-width="1" opacity="0.9764705882352941" d="M 58.5 10 L 59 11.5 L 52 19.5 L 50.5 24 L 43 15.5 L 44.5 15 L 49 18.5 L 50.5 21 L 53 15.5 L 58.5 10 Z " /><path fill="rgb(86,113,59)" stroke="rgb(86,113,59)" stroke-width="1" opacity="0.9764705882352941" d="M 115.5 20 L 115 21.5 L 114.5 23 L 114 21.5 L 115.5 20 Z " /><path fill="rgb(86,113,59)" stroke="rgb(86,113,59)" stroke-width="1" opacity="0.9764705882352941" d="M 118.5 22 L 119.5 24 L 118.5 22 Z " /><path fill="rgb(86,113,59)" stroke="rgb(86,113,59)" stroke-width="1" opacity="0.9764705882352941" d="M 135.5 30 L 142.5 30 L 143 33 L 148.5 33 Q 151 34.2 150 38 L 148 38.5 L 148 51.5 L 147 52.5 L 147 60 Q 143.1 62.4 133.5 61 L 130 55.5 L 129 38 Q 126 39.3 127 35.5 Q 128.5 31.8 134 33 L 135.5 30 Z M 136 32 L 136 33 L 142 33 L 136 32 Z " /><path fill="rgb(86,113,59)" stroke="rgb(86,113,59)" stroke-width="1" opacity="0.9764705882352941" d="M 90.5 32 Q 93.8 30.9 93 33.5 L 93.5 36 L 96 37.5 L 97 42 Q 100 40.8 99 44.5 L 102 49.5 L 101 52.5 L 102 54.5 L 101 58 L 99 58 Q 100.5 61.7 97.5 61 L 95 62 Q 96.1 64.7 93.5 64 L 91.5 65 L 88 60.5 Q 90.5 59 87 57.5 L 88 54.5 Q 85 53.5 86 48.5 L 88 45.5 L 87 43.5 L 88 40.5 L 87 40.5 L 85 43.5 L 85 45.5 L 84 48.5 Q 86.8 50.2 85 56.5 Q 82.5 58 86 59.5 L 88 67 Q 83.3 66.6 81 62.5 L 78 55.5 L 78 50.5 Q 79.3 42.3 85 38.5 L 85 36 L 88 34.5 Q 87.3 32.3 89.5 33 L 90.5 32 Z " /><path fill="rgb(86,113,59)" stroke="rgb(86,113,59)" stroke-width="1" opacity="0.9764705882352941" d="M 118 34 L 125.5 34 L 126 35.5 L 119.5 38 L 118 34 Z " /><path fill="rgb(86,113,59)" stroke="rgb(86,113,59)" stroke-width="1" opacity="0.9764705882352941" d="M 38.5 65 Q 42.3 64.3 43 66.5 L 42.5 69 L 39.5 71 L 37 69.5 L 40 73.5 L 39 76 L 36 75.5 L 36.5 74 Q 34.3 74.8 35 72.5 L 35.5 71 Q 33.3 71.8 34 69.5 L 35.5 66 Q 37 68.5 38.5 65 Z " /><path fill="rgb(86,113,59)" stroke="rgb(86,113,59)" stroke-width="1" opacity="0.9764705882352941" d="M 144.5 65 Q 147.3 66.3 145 67.5 L 148 70.5 L 148 72.5 L 145.5 75 Q 141.8 75.8 141 73.5 L 143 68.5 L 142.5 67 L 145 66.5 L 144.5 65 Z " /><path fill="rgb(86,113,59)" stroke="rgb(86,113,59)" stroke-width="1" opacity="0.9764705882352941" d="M 50 93 L 52 93.5 L 50 94.5 L 50 93 Z " /><path fill="rgb(59,44,9)" stroke="rgb(59,44,9)" stroke-width="1" opacity="0.03529411764705882" d="M 134.5 15 L 135.5 17 L 134.5 15 Z " /><path fill="rgb(59,44,9)" stroke="rgb(59,44,9)" stroke-width="1" opacity="0.03529411764705882" d="M 58.5 28 L 59 30.5 L 58 30.5 L 58.5 28 Z " /><path fill="rgb(59,44,9)" stroke="rgb(59,44,9)" stroke-width="1" opacity="0.03529411764705882" d="M 43.5 37 L 42.5 39 L 43.5 37 Z " /><path fill="rgb(59,44,9)" stroke="rgb(59,44,9)" stroke-width="1" opacity="0.03529411764705882" d="M 86.5 54 L 87 56.5 L 85.5 58 L 85 55.5 L 86.5 54 Z " /><path fill="rgb(59,44,9)" stroke="rgb(59,44,9)" stroke-width="1" opacity="0.03529411764705882" d="M 143.5 65 L 142.5 67 L 143.5 65 Z " /><path fill="rgb(59,44,9)" stroke="rgb(59,44,9)" stroke-width="1" opacity="0.03529411764705882" d="M 90.5 66 L 92 66.5 L 89.5 68 L 90.5 66 Z " /><path fill="rgb(59,44,9)" stroke="rgb(59,44,9)" stroke-width="1" opacity="0.03529411764705882" d="M 118.5 67 L 119.5 69 L 118.5 67 Z " /><path fill="rgb(59,44,9)" stroke="rgb(59,44,9)" stroke-width="1" opacity="0.03529411764705882" d="M 103.5 111 L 102.5 113 L 103.5 111 Z " /><path fill="rgb(128,19,4)" stroke="rgb(128,19,4)" stroke-width="1" opacity="0.00784313725490196" d="M 50.5 99 L 82 99.5 L 50.5 100 L 50.5 99 Z " /><path fill="rgb(128,19,4)" stroke="rgb(128,19,4)" stroke-width="1" opacity="0.00784313725490196" d="M 106.5 99 L 122 99.5 L 106.5 100 L 106.5 99 Z " /><path fill="rgb(128,19,4)" stroke="rgb(128,19,4)" stroke-width="1" opacity="0.00784313725490196" d="M 123.5 99 L 129 99.5 L 123.5 100 L 123.5 99 Z " /></svg>