<svg width="35" height="42" viewBox="0 0 35 42" fill="none" xmlns="http://www.w3.org/2000/svg">
<path d="M17.5 42C15.0851 41.9886 13.127 40.1182 13.1031 37.8H21.8531C21.8577 38.3615 21.7462 38.9182 21.525 39.438C20.9511 40.7022 19.779 41.6243 18.375 41.916H18.3641H18.3313H18.2919H18.2722C18.018 41.9668 17.7595 41.9949 17.5 42ZM35 35.7H0V31.5L4.375 29.4V17.85C4.25976 14.8871 4.95674 11.9472 6.39625 9.324C7.82915 6.89118 10.2784 5.16364 13.125 4.578V0H21.875V4.578C27.5166 5.8674 30.625 10.5798 30.625 17.85V29.4L35 31.5V35.7Z" fill="#B0C3CC"/>
</svg>
