<svg width="30" height="27" viewBox="0 0 30 27" fill="none" xmlns="http://www.w3.org/2000/svg">
<path d="M0.09375 2.99893C0.282784 2.14697 0.747479 1.38628 1.41173 0.841452C2.07598 0.296621 2.90041 -5.88107e-05 3.75 8.74441e-09H26.25C27.0996 -5.88107e-05 27.924 0.296621 28.5883 0.841452C29.2525 1.38628 29.7172 2.14697 29.9062 2.99893L15 12.3699L0.09375 2.99893ZM0 5.20136V18.9019L10.8806 12.0401L0 5.20136ZM12.6769 13.1721L0.358125 20.9366C0.662219 21.5971 1.14248 22.1551 1.74298 22.5457C2.34348 22.9363 3.0395 23.1434 3.75 23.1429H15.48C15.1615 22.2136 14.9992 21.2353 15 20.25C14.9987 18.9831 15.2677 17.7314 15.788 16.5831C16.3083 15.4348 17.0672 14.4179 18.0112 13.6041L17.3231 13.1702L15 14.6301L12.6769 13.1721ZM30 5.20136V14.7941C29.209 13.7876 28.2091 12.9758 27.0736 12.4182C25.9381 11.8606 24.6958 11.5713 23.4375 11.5714C22.1614 11.5704 20.9016 11.8671 19.7531 12.4393L19.1194 12.0401L30 5.20136Z" fill="#AAAAAA"/>
<path d="M23.4375 27C25.178 27 26.8472 26.2888 28.0779 25.023C29.3086 23.7571 30 22.0402 30 20.25C30 18.4598 29.3086 16.7429 28.0779 15.477C26.8472 14.2112 25.178 13.5 23.4375 13.5C21.697 13.5 20.0278 14.2112 18.7971 15.477C17.5664 16.7429 16.875 18.4598 16.875 20.25C16.875 22.0402 17.5664 23.7571 18.7971 25.023C20.0278 26.2888 21.697 27 23.4375 27ZM24.375 17.3571V20.25C24.375 20.5057 24.2762 20.751 24.1004 20.9319C23.9246 21.1127 23.6861 21.2143 23.4375 21.2143C23.1889 21.2143 22.9504 21.1127 22.7746 20.9319C22.5988 20.751 22.5 20.5057 22.5 20.25V17.3571C22.5 17.1014 22.5988 16.8561 22.7746 16.6753C22.9504 16.4945 23.1889 16.3929 23.4375 16.3929C23.6861 16.3929 23.9246 16.4945 24.1004 16.6753C24.2762 16.8561 24.375 17.1014 24.375 17.3571ZM24.375 23.1429C24.375 23.3986 24.2762 23.6439 24.1004 23.8247C23.9246 24.0055 23.6861 24.1071 23.4375 24.1071C23.1889 24.1071 22.9504 24.0055 22.7746 23.8247C22.5988 23.6439 22.5 23.3986 22.5 23.1429C22.5 22.8871 22.5988 22.6418 22.7746 22.461C22.9504 22.2802 23.1889 22.1786 23.4375 22.1786C23.6861 22.1786 23.9246 22.2802 24.1004 22.461C24.2762 22.6418 24.375 22.8871 24.375 23.1429Z" fill="#AAAAAA"/>
</svg>
